<svg width="22" height="22" viewBox="0 0 22 22" fill="none" xmlns="http://www.w3.org/2000/svg">
<path d="M12.75 7.5V5.75C12.75 5.28587 12.5656 4.84075 12.2374 4.51256C11.9092 4.18437 11.4641 4 11 4H4.875C4.41087 4 3.96575 4.18437 3.63756 4.51256C3.30937 4.84075 3.125 5.28587 3.125 5.75V16.25C3.125 16.7141 3.30937 17.1592 3.63756 17.4874C3.96575 17.8156 4.41087 18 4.875 18H11C11.4641 18 11.9092 17.8156 12.2374 17.4874C12.5656 17.1592 12.75 16.7141 12.75 16.25V14.5M6.625 11H18.875M18.875 11L16.25 8.375M18.875 11L16.25 13.625" stroke="white" stroke-width="1.5" stroke-linecap="round" stroke-linejoin="round"/>
</svg>
