<svg width="22" height="22" viewBox="0 0 22 22" fill="none" xmlns="http://www.w3.org/2000/svg">
<path d="M11 5.75C11.9625 5.75 12.75 6.5375 12.75 7.5C12.75 8.4625 11.9625 9.25 11 9.25C10.0375 9.25 9.25 8.4625 9.25 7.5C9.25 6.5375 10.0375 5.75 11 5.75ZM11 14.5C13.3625 14.5 16.075 15.6287 16.25 16.25H5.75C5.95125 15.62 8.64625 14.5 11 14.5ZM11 4C9.06625 4 7.5 5.56625 7.5 7.5C7.5 9.43375 9.06625 11 11 11C12.9338 11 14.5 9.43375 14.5 7.5C14.5 5.56625 12.9338 4 11 4ZM11 12.75C8.66375 12.75 4 13.9225 4 16.25V18H18V16.25C18 13.9225 13.3363 12.75 11 12.75Z" fill="#1890FF"/>
</svg>
