<svg width="21" height="20" viewBox="0 0 21 20" fill="none" xmlns="http://www.w3.org/2000/svg">
<path d="M14.9167 2.78357C16.1736 3.50928 17.2192 4.55067 17.9499 5.80465C18.6807 7.05863 19.0712 8.48171 19.0829 9.93302C19.0947 11.3843 18.7271 12.8135 18.0168 14.0792C17.3064 15.3448 16.2778 16.4029 15.0328 17.1488C13.7878 17.8948 12.3696 18.3026 10.9185 18.332C9.46744 18.3613 8.03387 18.0112 6.75971 17.3163C5.48555 16.6213 4.41497 15.6057 3.65397 14.3698C2.89297 13.134 2.46792 11.7208 2.42091 10.2702L2.41675 10.0002L2.42091 9.73024C2.46758 8.29106 2.88637 6.88854 3.63645 5.6594C4.38652 4.43026 5.44229 3.41645 6.70082 2.7168C7.95936 2.01716 9.3777 1.65557 10.8176 1.66727C12.2575 1.67897 13.6698 2.06357 14.9167 2.78357ZM13.8392 7.7444C13.6958 7.60092 13.5048 7.51473 13.3023 7.502C13.0998 7.48926 12.8996 7.55086 12.7392 7.67524L12.6609 7.7444L9.91675 10.4877L8.83925 9.41107L8.76091 9.3419C8.60057 9.21762 8.40039 9.15609 8.19792 9.16886C7.99545 9.18164 7.80459 9.26783 7.66113 9.41129C7.51768 9.55474 7.43148 9.7456 7.41871 9.94807C7.40594 10.1505 7.46746 10.3507 7.59175 10.5111L7.66092 10.5894L9.32758 12.2561L9.40592 12.3252C9.55206 12.4386 9.73178 12.5002 9.91675 12.5002C10.1017 12.5002 10.2814 12.4386 10.4276 12.3252L10.5059 12.2561L13.8392 8.92274L13.9084 8.8444C14.0328 8.68407 14.0944 8.48386 14.0817 8.28134C14.0689 8.07881 13.9827 7.8879 13.8392 7.7444Z" fill="#1890FF"/>
</svg>
