<svg width="22" height="17" viewBox="0 0 22 17" fill="none" xmlns="http://www.w3.org/2000/svg">
<g clip-path="url(#clip0_3063_14518)">
<path d="M21.5622 8.57448C21.5622 3.47628 17.3068 -0.047566 12.6442 -0.0460275H8.63181C3.91371 -0.0477198 0.0302734 3.47731 0.0302734 8.57448C0.0302734 13.2376 3.91371 17.0688 8.63181 17.0463H12.6442C17.3065 17.0686 21.5622 13.2363 21.5622 8.57448Z" fill="white"/>
<path d="M8.6572 0.676025C4.34592 0.67741 0.852588 4.179 0.851562 8.50064C0.852588 12.8216 4.34613 16.3227 8.6572 16.3242C12.9695 16.3228 16.4639 12.8215 16.4644 8.50064C16.4638 4.179 12.9696 0.677564 8.6572 0.676025Z" fill="#1890FF"/>
<path d="M3.72363 8.47961C3.72774 6.36776 5.04394 4.56694 6.90004 3.85141V13.1068C5.04394 12.3915 3.72768 10.5917 3.72363 8.47961ZM10.4416 13.109V3.8511C12.2984 4.56494 13.6167 6.36684 13.62 8.47966C13.6167 10.5931 12.2984 12.3938 10.4416 13.109Z" fill="white"/>
</g>
<defs>
<clipPath id="clip0_3063_14518">
<rect width="22" height="17" fill="white"/>
</clipPath>
</defs>
</svg>
