<svg width="53" height="9" viewBox="0 0 53 9" fill="none" xmlns="http://www.w3.org/2000/svg">
<g clip-path="url(#clip0_3063_14523)">
<path fill-rule="evenodd" clip-rule="evenodd" d="M21.1726 0.0797653C21.8796 0.0797653 22.4724 0.222485 23.194 0.566965V2.38704C22.5105 1.758 21.9176 1.49472 21.1336 1.49472C19.5924 1.49472 18.3804 2.69593 18.3804 4.21873C18.3804 5.82473 19.5549 6.9544 21.21 6.9544C21.955 6.9544 22.5369 6.7048 23.194 6.08584V7.90688C22.4468 8.23808 21.8412 8.36896 21.1336 8.36896C18.6313 8.36896 16.687 6.56128 16.687 4.23C16.687 1.92392 18.6831 0.0797653 21.1726 0.0797653ZM13.4036 0.129925C14.3272 0.129925 15.1724 0.427525 15.879 1.00945L15.0192 2.06928C14.5912 1.6176 14.1864 1.42704 13.694 1.42704C12.9858 1.42704 12.47 1.80665 12.47 2.30617C12.47 2.73449 12.7596 2.96121 13.7456 3.30472C15.6148 3.94824 16.1688 4.5188 16.1688 5.7788C16.1688 7.31424 14.9707 8.38304 13.2632 8.38304C12.0128 8.38304 11.1036 7.91944 10.3465 6.87328L11.408 5.91088C11.7864 6.59968 12.4177 6.96864 13.2016 6.96864C13.9346 6.96864 14.4773 6.49249 14.4773 5.84993C14.4773 5.51681 14.3129 5.2312 13.9847 5.02928C13.8194 4.93368 13.492 4.79113 12.8487 4.57753C11.3054 4.05449 10.7759 3.49536 10.7759 2.40272C10.7759 1.10472 11.913 0.129925 13.4036 0.129925ZM32.1814 0.268165H33.9764L36.2231 5.59552L38.4988 0.268165H40.2801L36.6406 8.40304H35.7564L32.1814 0.268165ZM0.393555 0.280324H2.80555C5.47051 0.280324 7.32828 1.91088 7.32828 4.25161C7.32828 5.4188 6.75995 6.54729 5.79883 7.29617C4.99019 7.92825 4.06875 8.21176 2.79291 8.21176H0.393555V0.280324ZM8.08435 0.280324H9.72755V8.21176H8.08435V0.280324ZM41.0231 0.280324H45.6832V1.62432H42.6652V3.38472H45.5721V4.728H42.6652V6.86896H45.6833V8.21176H41.0232L41.0231 0.280324ZM46.7717 0.280324H49.2081C51.1033 0.280324 52.1893 1.13712 52.1893 2.62208C52.1893 3.83648 51.5082 4.63328 50.2704 4.87048L52.9223 8.21176H50.9015L48.6272 5.02552H48.4129V8.21176H46.7717V0.280324ZM48.4129 1.52961V3.9316H48.8931C49.9424 3.9316 50.4986 3.50264 50.4986 2.70536C50.4986 1.93352 49.9423 1.52961 48.919 1.52961H48.4129ZM2.03563 1.62425V6.86896H2.47659C3.53843 6.86896 4.20907 6.67745 4.72539 6.23857C5.29363 5.76217 5.63547 5.00136 5.63547 4.24016C5.63547 3.48024 5.29363 2.74216 4.72539 2.26568C4.18259 1.80328 3.53843 1.62425 2.47659 1.62425H2.03563Z" fill="white"/>
<path fill-rule="evenodd" clip-rule="evenodd" d="M28.2102 0.0253677C30.6855 0.0253677 32.692 1.91177 32.692 4.24209V4.24473C32.692 6.57513 30.6855 8.46409 28.2103 8.46409C25.7351 8.46409 23.7285 6.57505 23.7285 4.24473V4.24209C23.7285 1.91169 25.735 0.0253677 28.2102 0.0253677Z" fill="#F47216"/>
</g>
<defs>
<clipPath id="clip0_3063_14523">
<rect width="53" height="9" fill="white"/>
</clipPath>
</defs>
</svg>
