<svg width="32" height="24" viewBox="0 0 32 24" fill="none" xmlns="http://www.w3.org/2000/svg">
<g clip-path="url(#clip0_3063_14509)">
<path d="M31.7309 19.2354C31.7309 21.903 29.5688 24.0662 26.9001 24.0662H0.673828V4.97128C0.673828 2.30295 2.8362 0.139873 5.50492 0.139873L31.7306 0.139809L31.7306 19.2353L31.7309 19.2354Z" fill="white"/>
<path d="M23.1811 12.5219C23.9301 12.5381 24.6835 12.4888 25.4296 12.5476C26.1852 12.6885 26.3673 13.8324 25.696 14.207C25.2382 14.4539 24.6939 14.2989 24.1973 14.3425H23.1812L23.1811 12.5219ZM25.8627 10.4613C26.0291 11.0488 25.4629 11.5762 24.897 11.4953H23.1811C23.193 10.9413 23.1575 10.3401 23.1985 9.81532C23.886 9.83461 24.5798 9.77583 25.2632 9.84602C25.5569 9.91981 25.8026 10.1612 25.8627 10.4613ZM29.9927 1.74981C30.0246 2.87166 29.9973 4.05282 30.0064 5.19743C30.0042 9.85102 30.0111 14.5045 30.0029 19.1583C29.9728 20.9024 28.4272 22.4176 26.6952 22.4524C24.9614 22.4595 23.2275 22.4534 21.4938 22.4554V15.4201C23.3829 15.4103 25.2732 15.4398 27.1615 15.4053C28.0376 15.3502 28.9969 14.7722 29.0378 13.8082C29.141 12.8401 28.228 12.1703 27.3614 12.0645C27.0282 12.0559 27.038 11.9674 27.3614 11.9288C28.1878 11.7502 28.837 10.8947 28.5938 10.0379C28.3864 9.13673 27.3905 8.78795 26.562 8.78968C24.8728 8.77814 23.1832 8.78801 21.4939 8.78474C21.5049 7.47134 21.4712 6.15654 21.5122 4.8441C21.646 3.13154 23.2305 1.71929 24.9383 1.74987L29.9927 1.74981Z" fill="url(#paint0_linear_3063_14509)"/>
<path d="M2.40424 5.02192C2.44745 3.2807 3.99969 1.77763 5.72956 1.75224C7.45674 1.74692 9.18411 1.75147 10.9114 1.74993C10.9067 7.57589 10.9209 13.4025 10.9042 19.2281C10.8377 20.9483 9.30232 22.4227 7.59149 22.453C5.86097 22.4594 4.13027 22.4539 2.39969 22.4557V15.1833C4.08065 15.5803 5.84341 15.7494 7.55822 15.4859C8.58341 15.3209 9.70488 14.8177 10.0519 13.7542C10.3074 12.8445 10.1636 11.8872 10.2016 10.9535V8.78532H7.23379C7.22046 10.2192 7.2611 11.6558 7.21232 13.0882C7.13232 13.9686 6.26065 14.5279 5.43027 14.4981C4.4004 14.509 2.35988 13.752 2.35988 13.752C2.35476 11.0649 2.38976 7.70012 2.40424 5.0225V5.02192Z" fill="url(#paint1_linear_3063_14509)"/>
<path d="M12.0186 9.65974C11.8625 9.69288 11.9872 9.12763 11.9472 8.9132C11.9578 7.55743 11.925 6.20019 11.9653 4.84538C12.0989 3.12557 13.6955 1.70974 15.4102 1.75H20.4593C20.4546 7.5759 20.4687 13.4026 20.4521 19.2282C20.3855 20.9483 18.8501 22.4226 17.1393 22.4531C15.4087 22.4595 13.6779 22.454 11.9471 22.4558V14.4879C13.1292 15.4576 14.7356 15.6086 16.2082 15.6112C17.3182 15.6108 18.4219 15.4398 19.4999 15.1837V13.7239C18.285 14.3294 16.8568 14.714 15.51 14.3662C14.5705 14.1322 13.8886 13.2244 13.9038 12.2548C13.7949 11.2466 14.3861 10.182 15.3769 9.88231C16.607 9.49718 17.9479 9.79173 19.1011 10.2924C19.3481 10.4218 19.5988 10.5822 19.4999 10.1692V9.02179C17.5714 8.56308 15.5191 8.3941 13.5814 8.89333C13.0205 9.0516 12.4743 9.29154 12.0186 9.65987V9.65974Z" fill="url(#paint2_linear_3063_14509)"/>
</g>
<defs>
<linearGradient id="paint0_linear_3063_14509" x1="21.4609" y1="12.1405" x2="29.9782" y2="12.1405" gradientUnits="userSpaceOnUse">
<stop stop-color="#007B40"/>
<stop offset="1" stop-color="#55B330"/>
</linearGradient>
<linearGradient id="paint1_linear_3063_14509" x1="2.41996" y1="12.1405" x2="10.9304" y2="12.1405" gradientUnits="userSpaceOnUse">
<stop stop-color="#1D2970"/>
<stop offset="1" stop-color="#006DBA"/>
</linearGradient>
<linearGradient id="paint2_linear_3063_14509" x1="11.9541" y1="12.3678" x2="20.4687" y2="12.3678" gradientUnits="userSpaceOnUse">
<stop stop-color="#6E2B2F"/>
<stop offset="1" stop-color="#E30138"/>
</linearGradient>
<clipPath id="clip0_3063_14509">
<rect width="32" height="24" fill="white"/>
</clipPath>
</defs>
</svg>
