<svg width="45" height="17" viewBox="0 0 45 17" fill="none" xmlns="http://www.w3.org/2000/svg">
<g clip-path="url(#clip0_3063_14515)">
<path d="M0.0149369 7.67455H2.17499L2.66203 6.54897H3.75242L4.23819 7.67455H8.48826V6.81406L8.86765 7.6783H11.074L11.4534 6.80126V7.6746H22.0157L22.0108 5.82695H22.2151C22.3581 5.83174 22.4 5.84437 22.4 6.07076V7.6746H27.8628V7.24451C28.3035 7.47066 28.9888 7.6746 29.8906 7.6746H32.1888L32.6806 6.54903H33.771L34.252 7.6746H38.6807V6.60545L39.3515 7.6746H42.9004V0.60672H39.3881V1.44141L38.8964 0.60672H35.2923V1.44141L34.8407 0.60672H29.9727C29.1579 0.60672 28.4416 0.715701 27.8629 1.01939V0.60672H24.5035V1.01939C24.1353 0.706355 23.6336 0.60672 23.0756 0.60672H10.8022L9.97869 2.43216L9.13298 0.60672H5.2673V1.44141L4.84257 0.60672H1.54574L0.0146484 3.96707V7.67443H0.0148215L0.0149369 7.67455ZM13.6499 6.65512H12.3539L12.3491 2.68624L10.516 6.65507H9.40598L7.56801 2.68272V6.65507H4.99667L4.5109 5.52476H1.87857L1.3879 6.65507H0.0147638L2.27867 1.58755H4.15707L6.30721 6.38547V1.58755H8.37063L10.0251 5.02526L11.545 1.58755H13.6499L13.6499 6.65512ZM4.07878 4.47303L3.21351 2.45282L2.35303 4.47303H4.07878ZM18.8076 6.65501H14.5844V1.58749H18.8076V2.64274H15.8486V3.55618H18.7367V4.59493H15.8486V5.60697H18.8076L18.8076 6.65501ZM24.7592 2.95232C24.7592 3.76024 24.1964 4.1777 23.8685 4.30301C24.145 4.40385 24.3814 4.58212 24.4938 4.72976C24.6723 4.98182 24.7031 5.20693 24.7031 5.65953V6.65501H23.4279L23.4231 6.01595C23.4231 5.71105 23.4536 5.27253 23.2236 5.02872C23.0389 4.85045 22.7573 4.8118 22.3021 4.8118H20.945V6.65507H19.6807V1.58749H22.5885C23.2346 1.58749 23.7107 1.60382 24.1194 1.8302C24.5193 2.05659 24.7592 2.38705 24.7592 2.95232ZM23.1611 3.70474C22.9873 3.80582 22.7819 3.80916 22.5357 3.80916H20.9999V2.68358H22.5566C22.7769 2.68358 23.0068 2.69305 23.1562 2.77497C23.3202 2.84882 23.4216 3.00591 23.4216 3.22295C23.4216 3.44449 23.3251 3.6227 23.1611 3.70474ZM26.7868 6.65501H25.4969V1.58749H26.7868V6.65501ZM41.7614 6.65501H39.9699L37.5736 2.85153V6.65501H34.9989L34.507 5.5247H31.8808L31.4036 6.65501H29.9239C29.3095 6.65501 28.5313 6.5248 28.0908 6.09453C27.6466 5.66426 27.4154 5.08145 27.4154 4.15993C27.4154 3.40837 27.5536 2.72132 28.0968 2.17837C28.5056 1.77395 29.1457 1.58749 30.0168 1.58749H31.2408V2.67332H30.0425C29.5811 2.67332 29.3205 2.73908 29.0697 2.97349C28.8542 3.18689 28.7063 3.59022 28.7063 4.12139C28.7063 4.66428 28.8189 5.05578 29.0538 5.31147C29.2484 5.51201 29.6022 5.57281 29.9349 5.57281H30.5027L32.2844 1.58766H34.1788L36.3193 6.3808V1.58772H38.2442L40.4665 5.11699V1.58772H41.7614V6.65501ZM34.0768 4.47308L33.2019 2.45287L32.3318 4.47308H34.0768ZM44.9829 14.7469C44.6759 15.1771 44.0775 15.3953 43.2674 15.3953H40.8259V14.3084H43.2575C43.4987 14.3084 43.6674 14.2779 43.7691 14.1829C43.8651 14.0978 43.9194 13.9778 43.9186 13.8524C43.9186 13.7046 43.8572 13.5874 43.7641 13.5171C43.6724 13.4397 43.5389 13.4046 43.3186 13.4046C42.1316 13.3659 40.6507 13.4397 40.6507 11.8357C40.6507 11.1006 41.1378 10.3267 42.4645 10.3267H44.9827V9.31831H42.6429C41.9369 9.31831 41.4239 9.48043 41.0606 9.7322V9.31826H37.6C37.0464 9.31826 36.3969 9.44974 36.0896 9.7322V9.31826H29.9096V9.7322C29.4179 9.39227 28.588 9.31826 28.2049 9.31826H24.1286V9.7322C23.7395 9.37116 22.8742 9.31826 22.3467 9.31826H17.7846L16.7407 10.4008L15.7629 9.31826H8.94767V16.3908H15.6342L16.7099 15.291L17.7233 16.3908L21.845 16.3943V14.7305H22.25C22.7969 14.7386 23.4419 14.7174 24.011 14.4818V16.3905H27.4107V14.5471H27.5746C27.7839 14.5471 27.8045 14.5554 27.8045 14.7557V16.3903H38.132C38.7876 16.3903 39.473 16.2296 39.8526 15.9377V16.3903H43.1284C43.81 16.3903 44.4757 16.2987 44.9823 16.0644L44.9824 14.7467L44.9829 14.7469ZM24.5056 12.0264C24.5056 13.4345 23.4092 13.7252 22.3041 13.7252H20.7267V15.4253H18.2695L16.7127 13.7473L15.0949 15.4253H10.0871V10.3565H15.1718L16.7272 12.018L18.3354 10.3565H22.3751C23.3783 10.3565 24.5056 10.6227 24.5056 12.0264ZM14.4545 14.3592H11.3461V13.3507H14.1217V12.3165H11.3461V11.3949H14.5157L15.8985 12.8721L14.4545 14.3592ZM19.4627 14.9396L17.5217 12.8748L19.4627 10.8758V14.9396ZM22.3333 12.6858H20.6996V11.3949H22.348C22.8044 11.3949 23.1213 11.5732 23.1213 12.0164C23.1213 12.4548 22.8191 12.6858 22.3333 12.6858ZM30.8926 10.3565H35.1121V11.4048H32.1516V12.3263H35.0398V13.3605H32.1516V14.369L35.112 14.3736V15.4253H30.8924L30.8926 10.3565ZM29.2703 13.0698C29.5517 13.1693 29.7817 13.3476 29.8896 13.4952C30.0681 13.7428 30.0939 13.9737 30.0991 14.4204V15.4253H28.8297V14.7912C28.8297 14.4862 28.8603 14.0347 28.6254 13.799C28.4407 13.6174 28.159 13.574 27.6979 13.574H26.3467V15.4254H25.0764V10.3566H27.9952C28.6352 10.3566 29.1014 10.3837 29.5164 10.5958C29.9153 10.8268 30.1663 11.1431 30.1663 11.7214C30.1663 12.5304 29.603 12.9432 29.2703 13.0698ZM28.5558 12.429C28.3866 12.5251 28.1776 12.5334 27.9317 12.5334H26.3958V11.3951H27.9524C28.1776 11.3951 28.4028 11.3997 28.5558 11.4866C28.7196 11.5687 28.8176 11.7258 28.8176 11.9426C28.8176 12.1594 28.7196 12.3341 28.5558 12.429ZM39.9685 12.7519C40.2148 12.9959 40.3466 13.304 40.3466 13.8257C40.3466 14.9161 39.6357 15.4251 38.3605 15.4251H35.8982V14.3382H38.3507C38.5906 14.3382 38.7606 14.3079 38.8671 14.2127C38.9541 14.1344 39.0164 14.0204 39.0164 13.8822C39.0164 13.7344 38.9489 13.6173 38.8621 13.5469C38.7655 13.4696 38.6322 13.4345 38.4119 13.4345C37.2297 13.3958 35.749 13.4696 35.749 11.8657C35.749 11.1305 36.2311 10.3566 37.5565 10.3566H40.0911V11.4354H37.772C37.5421 11.4354 37.3926 11.4438 37.2655 11.527C37.127 11.609 37.0757 11.7309 37.0757 11.8916C37.0757 12.0828 37.1932 12.2129 37.3523 12.2692C37.4856 12.3136 37.6289 12.3266 37.8442 12.3266L38.5248 12.3443C39.211 12.3602 39.6821 12.474 39.9685 12.7519ZM44.9851 11.3949H42.681C42.451 11.3949 42.298 11.4033 42.1694 11.4865C42.0361 11.5686 41.9847 11.6904 41.9847 11.8512C41.9847 12.0424 42.0973 12.1725 42.2611 12.2288C42.3945 12.2733 42.5377 12.2862 42.7483 12.2862L43.4335 12.3038C44.1249 12.3202 44.5863 12.434 44.8678 12.7118C44.9192 12.7504 44.9498 12.7938 44.9851 12.8373V11.3949H44.9851Z" fill="white"/>
</g>
<defs>
<clipPath id="clip0_3063_14515">
<rect width="45" height="17" fill="white"/>
</clipPath>
</defs>
</svg>
