<svg width="35" height="26" viewBox="0 0 35 26" fill="none" xmlns="http://www.w3.org/2000/svg">
<path d="M34.7302 4.12754L34.7407 21.3348C34.7407 23.3648 32.9343 25.0275 30.7395 25.0275L4.92601 25.0469C2.71013 25.0469 0.903816 23.3842 0.903816 21.3638L0.882812 4.15654C0.882812 2.11681 2.68912 0.463761 4.8945 0.463761L30.7185 0.444427C32.9238 0.444427 34.7302 2.08781 34.7302 4.12754Z" fill="#F6C859"/>
<path d="M13.9373 21.7601C13.7903 21.7601 13.6538 21.6924 13.5907 21.5668C13.4962 21.3928 13.5697 21.1704 13.7588 21.0834C14.3259 20.8128 15.0925 20.3101 15.5441 19.4497C16.1112 18.3477 15.9642 17.149 15.7226 17.0426C15.6596 17.0136 15.4286 17.1296 15.2815 17.1973C14.914 17.3713 14.3994 17.613 13.8113 17.4196C13.2337 17.236 12.9501 16.7623 12.8136 16.5303C11.921 15.0319 11.6479 11.1458 12.5826 9.21238C12.8976 8.57436 13.3177 8.18769 13.8428 8.07168C14.3784 7.95568 14.8195 8.15868 15.166 8.33269C15.4496 8.46803 15.5966 8.52603 15.6911 8.47769C16.0587 8.27469 16.0482 7.03732 15.5336 6.06095C15.082 5.19092 14.3154 4.68824 13.7483 4.42723C13.5592 4.34023 13.4752 4.11789 13.5802 3.94388C13.6748 3.76988 13.9163 3.69254 14.1053 3.78921C14.7775 4.10822 15.7016 4.70758 16.2372 5.76128C16.7728 6.79564 17.0248 8.58403 16.0902 9.10605C15.6176 9.36706 15.166 9.15438 14.809 8.99004C14.5359 8.86437 14.2734 8.7387 14.0213 8.79671C13.6748 8.87404 13.4437 9.23172 13.2967 9.52173C12.4776 11.2134 12.7191 14.8869 13.4962 16.2016C13.6328 16.4239 13.7903 16.6656 14.0633 16.7526C14.3259 16.8396 14.5779 16.7333 14.9245 16.569C15.271 16.4046 15.6491 16.2306 16.0587 16.4046C16.9408 16.801 16.8778 18.5313 16.2477 19.7687C15.7016 20.8224 14.788 21.4218 14.1158 21.7408C14.0528 21.7504 13.9898 21.7601 13.9373 21.7601Z" fill="#7D662D"/>
<path d="M12.7507 9.86007H5.704C5.48346 9.86007 5.31543 9.69573 5.31543 9.50239C5.31543 9.30905 5.48346 9.14471 5.6935 9.14471H12.7402C12.9607 9.14471 13.1288 9.30905 13.1288 9.50239C13.1393 9.69573 12.9713 9.86007 12.7507 9.86007Z" fill="#7D662D"/>
<path d="M12.7507 16.3563H5.704C5.48346 16.3563 5.31543 16.1919 5.31543 15.9986C5.31543 15.7956 5.49396 15.6409 5.704 15.6409H12.7507C12.9712 15.6409 13.1393 15.8052 13.1393 15.9986C13.1498 16.1919 12.9712 16.3563 12.7507 16.3563Z" fill="#7D662D"/>
<path d="M22.1603 21.7504C22.0973 21.7504 22.0343 21.7408 21.9818 21.7118C21.3097 21.3928 20.3855 20.7934 19.8499 19.7397C19.2093 18.5023 19.1568 16.7719 20.0284 16.3756C20.438 16.1919 20.8266 16.3756 21.1626 16.5303C21.5197 16.6946 21.7717 16.8009 22.0238 16.7139C22.3178 16.6173 22.4859 16.3369 22.5909 16.1629C23.368 14.8482 23.5991 11.1651 22.7799 9.48304C22.6329 9.19303 22.4019 8.82569 22.0553 8.75802C21.8453 8.70969 21.7087 8.51635 21.7612 8.32301C21.8138 8.12967 22.0238 8.01366 22.2338 8.05233C22.7589 8.16833 23.179 8.54535 23.494 9.18337C24.4392 11.1168 24.1662 15.0126 23.2735 16.5013C23.137 16.7333 22.8534 17.207 22.2758 17.3906C21.6877 17.584 21.1731 17.3423 20.8056 17.1683C20.6586 17.1006 20.4275 16.9943 20.3645 17.0136C20.1335 17.12 19.9759 18.3187 20.5535 19.4207C21.0051 20.2907 21.7717 20.7934 22.3388 21.0544C22.5279 21.1414 22.6119 21.3638 22.5069 21.5378C22.4439 21.6828 22.3073 21.7504 22.1603 21.7504Z" fill="#7D662D"/>
<path d="M20.585 8.41001C20.417 8.41001 20.2699 8.31334 20.2174 8.16834C19.3773 5.84826 21.3411 4.05987 21.9712 3.76987C22.1603 3.6732 22.4018 3.75053 22.4963 3.92454C22.5908 4.09854 22.5173 4.32088 22.3283 4.40789C22.0447 4.54322 20.2384 5.96427 20.9526 7.93633C21.0261 8.12967 20.9105 8.33268 20.7005 8.39068C20.669 8.41001 20.627 8.41001 20.585 8.41001Z" fill="#7D662D"/>
<path d="M30.3835 9.8504H23.3368C23.1163 9.8504 22.9482 9.68606 22.9482 9.49272C22.9482 9.29938 23.1268 9.13504 23.3368 9.13504H30.3835C30.6041 9.13504 30.7721 9.29938 30.7721 9.49272C30.7721 9.68606 30.5936 9.8504 30.3835 9.8504Z" fill="#7D662D"/>
<path d="M30.3835 16.3369H23.3368C23.1163 16.3369 22.9482 16.1726 22.9482 15.9793C22.9482 15.7763 23.1268 15.6216 23.3368 15.6216H30.3835C30.6041 15.6216 30.7721 15.7859 30.7721 15.9793C30.7721 16.1823 30.6041 16.3369 30.3835 16.3369Z" fill="#7D662D"/>
</svg>
