<svg width="36" height="28" viewBox="0 0 36 28" fill="none" xmlns="http://www.w3.org/2000/svg">
<g clip-path="url(#clip0_3063_14368)">
<mask id="mask0_3063_14368" style="mask-type:luminance" maskUnits="userSpaceOnUse" x="-7" y="-2" width="50" height="33">
<path d="M43 -1.92295H-7V30.1283H43V-1.92295Z" fill="white"/>
</mask>
<g mask="url(#mask0_3063_14368)">
<path d="M6.52878 28.0158V26.161C6.52878 25.4515 6.0966 24.9869 5.35461 24.9869C4.98365 24.9869 4.58032 25.1093 4.30295 25.5127C4.08686 25.1742 3.77711 24.9869 3.3125 24.9869C3.00275 24.9869 2.69301 25.0805 2.44814 25.419V25.0481H1.7998V28.0158H2.44814V26.3771C2.44814 25.8513 2.72545 25.6028 3.15762 25.6028C3.5898 25.6028 3.80596 25.8801 3.80596 26.3771V28.0158H4.45423V26.3771C4.45423 25.8513 4.76397 25.6028 5.16378 25.6028C5.59596 25.6028 5.81205 25.8801 5.81205 26.3771V28.0158H6.52878ZM16.1451 25.0481H15.0935V24.1513H14.4452V25.0481H13.8581V25.6351H14.4452V26.9966C14.4452 27.6773 14.7225 28.077 15.4644 28.077C15.7418 28.077 16.0515 27.9834 16.2676 27.861L16.0803 27.3027C15.893 27.4252 15.6769 27.4576 15.522 27.4576C15.2123 27.4576 15.0899 27.2703 15.0899 26.9642V25.6351H16.1415V25.0481H16.1451ZM21.6485 24.9833C21.2775 24.9833 21.029 25.1705 20.8741 25.4154V25.0445H20.2258V28.0122H20.8741V26.3411C20.8741 25.8476 21.0902 25.5667 21.4936 25.5667C21.616 25.5667 21.7709 25.5992 21.897 25.6279L22.0842 25.0085C21.9546 24.9833 21.7709 24.9833 21.6485 24.9833ZM13.3322 25.293C13.0226 25.0769 12.5903 24.9833 12.1257 24.9833C11.3838 24.9833 10.8904 25.3542 10.8904 25.9413C10.8904 26.4347 11.2613 26.7156 11.9096 26.8057L12.2194 26.8381C12.5579 26.8994 12.7452 26.9929 12.7452 27.1478C12.7452 27.3639 12.4967 27.5188 12.0645 27.5188C11.6323 27.5188 11.2901 27.3639 11.074 27.209L10.7643 27.7025C11.1029 27.951 11.5675 28.0735 12.032 28.0735C12.8965 28.0735 13.3935 27.6701 13.3935 27.1154C13.3935 26.5896 12.9901 26.3122 12.3742 26.2186L12.0645 26.1862C11.7872 26.1538 11.5711 26.0926 11.5711 25.9088C11.5711 25.6928 11.7872 25.5703 12.1293 25.5703C12.5003 25.5703 12.8713 25.7252 13.0585 25.8188L13.3322 25.293ZM30.5805 24.9833C30.2095 24.9833 29.961 25.1705 29.8061 25.4154V25.0445H29.1579V28.0122H29.8061V26.3411C29.8061 25.8476 30.0222 25.5667 30.4256 25.5667C30.5481 25.5667 30.7029 25.5992 30.829 25.6279L31.0163 25.0156C30.8903 24.9833 30.7066 24.9833 30.5805 24.9833ZM22.2967 26.532C22.2967 27.4288 22.9162 28.077 23.8743 28.077C24.3065 28.077 24.6162 27.9834 24.926 27.7385L24.6162 27.2127C24.3677 27.3999 24.1228 27.49 23.8419 27.49C23.316 27.49 22.9451 27.119 22.9451 26.532C22.9451 25.9737 23.316 25.6028 23.8419 25.5739C24.1192 25.5739 24.3677 25.6676 24.6162 25.8513L24.926 25.3254C24.6162 25.0769 24.3065 24.9869 23.8743 24.9869C22.9162 24.9833 22.2967 25.6351 22.2967 26.532ZM28.2935 26.532V25.0481H27.6452V25.419C27.4291 25.1417 27.1194 24.9869 26.716 24.9869C25.8804 24.9869 25.2321 25.6351 25.2321 26.532C25.2321 27.4288 25.8804 28.077 26.716 28.077C27.1481 28.077 27.4579 27.9222 27.6452 27.6449V28.0158H28.2935V26.532ZM25.9128 26.532C25.9128 26.0061 26.2513 25.5739 26.8096 25.5739C27.3354 25.5739 27.7064 25.9773 27.7064 26.532C27.7064 27.0578 27.3354 27.49 26.8096 27.49C26.2549 27.4576 25.9128 27.0542 25.9128 26.532ZM18.1549 24.9833C17.2904 24.9833 16.671 25.6028 16.671 26.5283C16.671 27.4576 17.2904 28.0735 18.1873 28.0735C18.6195 28.0735 19.0517 27.951 19.3938 27.6701L19.0841 27.2054C18.8356 27.3928 18.5258 27.5152 18.2197 27.5152C17.8163 27.5152 17.4165 27.3279 17.3229 26.8057H19.5163C19.5163 26.712 19.5163 26.6508 19.5163 26.5572C19.5451 25.6028 18.9869 24.9833 18.1549 24.9833ZM18.1549 25.5415C18.5583 25.5415 18.8356 25.79 18.8968 26.251H17.3517C17.4129 25.8513 17.6903 25.5415 18.1549 25.5415ZM34.2614 26.532V23.874H33.6131V25.419C33.397 25.1417 33.0872 24.9869 32.6839 24.9869C31.8483 24.9869 31.2 25.6351 31.2 26.532C31.2 27.4288 31.8483 28.077 32.6839 28.077C33.1161 28.077 33.4258 27.9222 33.6131 27.6449V28.0158H34.2614V26.532ZM31.8807 26.532C31.8807 26.0061 32.2193 25.5739 32.7775 25.5739C33.3033 25.5739 33.6744 25.9773 33.6744 26.532C33.6744 27.0578 33.3033 27.49 32.7775 27.49C32.2193 27.4576 31.8807 27.0542 31.8807 26.532ZM10.1772 26.532V25.0481H9.52891V25.419C9.31282 25.1417 9.00307 24.9869 8.59974 24.9869C7.76416 24.9869 7.11583 25.6351 7.11583 26.532C7.11583 27.4288 7.76416 28.077 8.59974 28.077C9.03192 28.077 9.34166 27.9222 9.52891 27.6449V28.0158H10.1772V26.532ZM7.76775 26.532C7.76775 26.0061 8.10628 25.5739 8.66455 25.5739C9.19038 25.5739 9.56134 25.9773 9.56134 26.532C9.56134 27.0578 9.19038 27.49 8.66455 27.49C8.10628 27.4576 7.76775 27.0542 7.76775 26.532Z" fill="white"/>
<path d="M22.8551 2.50902H13.1162V20.0058H22.8551V2.50902Z" fill="#FF5A00"/>
<path d="M13.7641 11.2574C13.7641 7.70257 15.4353 4.54756 17.9996 2.50902C16.1124 1.02514 13.7317 0.128334 11.1349 0.128334C4.9833 0.128334 0.00585938 5.10577 0.00585938 11.2574C0.00585938 17.409 4.9833 22.3865 11.1349 22.3865C13.7317 22.3865 16.1124 21.4897 17.9996 20.0058C15.4317 17.9961 13.7641 14.8122 13.7641 11.2574Z" fill="#EB001B"/>
<path d="M35.9948 11.2574C35.9948 17.409 31.0173 22.3865 24.8657 22.3865C22.2689 22.3865 19.8882 21.4897 18.001 20.0058C20.5978 17.9637 22.2365 14.8122 22.2365 11.2574C22.2365 7.70257 20.5653 4.54756 18.001 2.50902C19.8846 1.02514 22.2653 0.128334 24.8621 0.128334C31.0173 0.128334 35.9948 5.13821 35.9948 11.2574Z" fill="#F79E1B"/>
</g>
</g>
<defs>
<clipPath id="clip0_3063_14368">
<rect width="36" height="28" fill="white"/>
</clipPath>
</defs>
</svg>
