<svg width="344" height="201" viewBox="0 0 344 201" fill="none" xmlns="http://www.w3.org/2000/svg">
<rect x="0.254883" y="0.137314" width="343" height="200" rx="20" fill="url(#paint0_linear_2930_5794)"/>
<mask id="mask0_2930_5794" style="mask-type:alpha" maskUnits="userSpaceOnUse" x="0" y="0" width="344" height="201">
<rect x="0.254883" y="0.137314" width="343" height="200" rx="20" fill="url(#paint1_linear_2930_5794)"/>
</mask>
<g mask="url(#mask0_2930_5794)">
<path d="M161.872 139.792C68.3406 83.7087 9.41105 111.98 -16.7334 143.332C-19.4173 146.55 -20.6738 150.668 -20.6738 154.858V204.275C-20.6738 215.321 -11.7195 224.275 -0.673828 224.275H345.346C356.392 224.275 365.346 215.321 365.346 204.275V198.511C365.346 181.765 343.377 168.573 326.858 171.32C281.82 178.81 213.639 170.833 161.872 139.792Z" fill="url(#paint2_linear_2930_5794)"/>
</g>
<defs>
<linearGradient id="paint0_linear_2930_5794" x1="0.254883" y1="0.137314" x2="339.311" y2="206.613" gradientUnits="userSpaceOnUse">
<stop stop-color="#9368DD"/>
<stop offset="1" stop-color="#483AAF"/>
</linearGradient>
<linearGradient id="paint1_linear_2930_5794" x1="0.254883" y1="0.137314" x2="339.311" y2="206.613" gradientUnits="userSpaceOnUse">
<stop stop-color="#8676FB"/>
<stop offset="1" stop-color="#AB7BFF"/>
</linearGradient>
<linearGradient id="paint2_linear_2930_5794" x1="-20.6738" y1="101.844" x2="211.458" y2="361.73" gradientUnits="userSpaceOnUse">
<stop stop-color="#9F7BE6"/>
<stop offset="0.991396" stop-color="#4D3DB3"/>
</linearGradient>
</defs>
</svg>
