<svg width="55" height="17" viewBox="0 0 55 17" fill="none" xmlns="http://www.w3.org/2000/svg">
<path d="M50.8435 1.06418H47.4514C46.3907 1.06418 45.5926 1.33485 45.141 2.29188L38.6299 15.9126H43.2507C43.2507 15.9126 44.0173 14.0856 44.1748 13.6989H49.8038C49.9403 14.2113 50.3394 15.9126 50.3394 15.9126H54.4246L50.8435 1.06418ZM45.4351 10.6538C45.7921 9.80312 47.1573 6.48735 47.1573 6.48735C47.1573 6.48735 47.5354 5.61732 47.7559 5.08564L48.05 6.36168C48.05 6.36168 48.9006 9.89979 49.0687 10.6538H45.4351Z" fill="white"/>
<path d="M32.7692 5.19197C32.7586 5.87833 33.7143 6.34234 35.2476 7.0287C37.7785 8.09207 38.9547 9.36811 38.9232 11.0695C38.9022 14.1533 35.8987 16.1447 31.2884 16.1447C29.314 16.1253 27.4237 15.758 26.3945 15.352L27.0141 12.0265L27.5707 12.2585C29.0095 12.8095 29.9546 13.0416 31.7085 13.0416C32.9687 13.0416 34.3234 12.5872 34.3444 11.5915C34.3549 10.9342 33.7668 10.4701 32.0655 9.74512C30.3852 9.03943 28.1798 7.85039 28.2113 5.72366C28.2323 2.8429 31.2989 0.812836 35.6361 0.812836C37.3374 0.812836 38.7132 1.14151 39.5743 1.44119L38.9757 4.65062L38.5767 4.48628C37.7575 4.18661 36.7178 3.90627 35.2791 3.91593C33.5673 3.90627 32.7692 4.57329 32.7692 5.19197Z" fill="white"/>
<path d="M26.3749 1.07407L23.6339 15.9129H19.2441L19.7797 13.0321L20.6514 8.29529L21.9746 1.08373L26.3749 1.07407Z" fill="white"/>
<path d="M10.6006 8.72044C9.13037 5.28866 5.62276 2.4369 0.319336 1.25753L0.371848 0.957855H7.18754C8.1117 0.996523 8.85733 1.25753 9.10937 2.16623L10.6006 8.72044Z" fill="white"/>
<path d="M20.1989 1.09317L13.2782 15.903H8.63642L4.69824 3.52925C7.52323 5.20163 9.92815 7.85038 10.7788 9.68711L11.2409 11.2242L15.5466 1.09317H20.1989Z" fill="white"/>
</svg>
