<svg width="40" height="40" viewBox="0 0 40 40" fill="none" xmlns="http://www.w3.org/2000/svg">
<path d="M20.0001 9.99996C21.8334 9.99996 23.3334 11.5 23.3334 13.3333C23.3334 15.1666 21.8334 16.6666 20.0001 16.6666C18.1667 16.6666 16.6667 15.1666 16.6667 13.3333C16.6667 11.5 18.1667 9.99996 20.0001 9.99996ZM20.0001 26.6666C24.5001 26.6666 29.6667 28.8166 30.0001 30H10.0001C10.3834 28.8 15.5167 26.6666 20.0001 26.6666ZM20.0001 6.66663C16.3167 6.66663 13.3334 9.64996 13.3334 13.3333C13.3334 17.0166 16.3167 20 20.0001 20C23.6834 20 26.6667 17.0166 26.6667 13.3333C26.6667 9.64996 23.6834 6.66663 20.0001 6.66663ZM20.0001 23.3333C15.5501 23.3333 6.66675 25.5666 6.66675 30V33.3333H33.3334V30C33.3334 25.5666 24.4501 23.3333 20.0001 23.3333Z" fill="#1D1F24"/>
</svg>
