<svg width="33" height="32" viewBox="0 0 33 32" fill="none" xmlns="http://www.w3.org/2000/svg">
<rect x="1.25" y="0.75" width="30.5" height="30.5" rx="15.25" stroke="#1890FF" stroke-width="1.5"/>
<path d="M15.8369 11.4725V18.9191L12.5836 15.6658C12.3236 15.4058 11.8969 15.4058 11.6369 15.6658C11.3769 15.9258 11.3769 16.3458 11.6369 16.6058L16.0302 20.9991C16.2902 21.2591 16.7102 21.2591 16.9702 20.9991L21.3636 16.6058C21.6236 16.3458 21.6236 15.9258 21.3636 15.6658C21.1036 15.4058 20.6836 15.4058 20.4236 15.6658L17.1702 18.9191V11.4725C17.1702 11.1058 16.8702 10.8058 16.5036 10.8058C16.1369 10.8058 15.8369 11.1058 15.8369 11.4725Z" fill="#1890FF"/>
</svg>
