<svg width="33" height="32" viewBox="0 0 33 32" fill="none" xmlns="http://www.w3.org/2000/svg">
<rect x="1.25" y="0.75" width="30.5" height="30.5" rx="15.25" stroke="#625C50" stroke-width="1.5"/>
<path d="M17.1668 20.5275V13.0808L20.4201 16.3341C20.6801 16.5941 21.1068 16.5941 21.3668 16.3341C21.6268 16.0741 21.6268 15.6541 21.3668 15.3941L16.9735 11.0008C16.7135 10.7408 16.2935 10.7408 16.0335 11.0008L11.6335 15.3875C11.3735 15.6475 11.3735 16.0675 11.6335 16.3275C11.8935 16.5875 12.3135 16.5875 12.5735 16.3275L15.8335 13.0808V20.5275C15.8335 20.8941 16.1335 21.1941 16.5001 21.1941C16.8668 21.1941 17.1668 20.8941 17.1668 20.5275Z" fill="#625C50"/>
</svg>
