<svg width="24" height="24" viewBox="0 0 24 24" fill="none" xmlns="http://www.w3.org/2000/svg">
<path d="M9.00073 13.5C11.2107 13.5 13.0007 11.71 13.0007 9.5C13.0007 7.29 11.2107 5.5 9.00073 5.5C6.79073 5.5 5.00073 7.29 5.00073 9.5C5.00073 11.71 6.79073 13.5 9.00073 13.5ZM9.00073 7.5C10.1007 7.5 11.0007 8.4 11.0007 9.5C11.0007 10.6 10.1007 11.5 9.00073 11.5C7.90073 11.5 7.00073 10.6 7.00073 9.5C7.00073 8.4 7.90073 7.5 9.00073 7.5ZM9.00073 15.5C6.33073 15.5 1.00073 16.84 1.00073 19.5V21.5H17.0007V19.5C17.0007 16.84 11.6707 15.5 9.00073 15.5ZM3.00073 19.5C3.22073 18.78 6.31073 17.5 9.00073 17.5C11.7007 17.5 14.8007 18.79 15.0007 19.5H3.00073ZM15.0807 7.55C15.9207 8.73 15.9207 10.26 15.0807 11.44L16.7607 13.13C18.7807 11.11 18.7807 8.06 16.7607 5.86L15.0807 7.55ZM20.0707 2.5L18.4407 4.13C21.2107 7.15 21.2107 11.69 18.4407 14.87L20.0707 16.5C23.9707 12.61 23.9807 6.55 20.0707 2.5Z" fill="#1890FF"/>
</svg>
