<svg width="24" height="24" viewBox="0 0 24 24" fill="none" xmlns="http://www.w3.org/2000/svg">
<path d="M21.7964 8.53146C21.7964 7.98146 21.3464 7.53146 20.7964 7.53146H13.7964C13.2464 7.53146 12.7964 7.98146 12.7964 8.53146C12.7964 9.08146 13.2464 9.53146 13.7964 9.53146H20.7964C21.3464 9.53146 21.7964 9.08146 21.7964 8.53146ZM12.7964 16.5315C12.7964 17.0815 13.2464 17.5315 13.7964 17.5315H20.7964C21.3464 17.5315 21.7964 17.0815 21.7964 16.5315C21.7964 15.9815 21.3464 15.5315 20.7964 15.5315H13.7964C13.2464 15.5315 12.7964 15.9815 12.7964 16.5315ZM10.2664 5.16146C10.6564 5.55146 10.6564 6.18146 10.2664 6.57146L6.03636 10.8215C5.64636 11.2115 5.01636 11.2115 4.61636 10.8215L2.49636 8.69146C2.10636 8.30146 2.10636 7.67146 2.49636 7.28146C2.88636 6.89146 3.51636 6.89146 3.90636 7.28146L5.32636 8.70146L8.86636 5.16146C9.24636 4.78146 9.88636 4.78146 10.2664 5.16146ZM10.2764 13.1715C10.6664 13.5615 10.6664 14.1915 10.2764 14.5815L6.04636 18.8315C5.65636 19.2215 5.02636 19.2215 4.62636 18.8315L2.49636 16.6915C2.10636 16.3015 2.10636 15.6715 2.49636 15.2815C2.88636 14.8915 3.51636 14.8915 3.90636 15.2815L5.32636 16.7015L8.86636 13.1615C9.24636 12.7815 9.88636 12.7815 10.2764 13.1715Z" fill="#1890FF"/>
</svg>
